<?xml version="1.0" encoding="UTF-8" standalone="no"?>
<!-- Generator: Adobe Illustrator 17.0.0, SVG Export Plug-In . SVG Version: 6.00 Build 0)  -->

<svg
   xmlns:dc="http://purl.org/dc/elements/1.1/"
   xmlns:cc="http://creativecommons.org/ns#"
   xmlns:rdf="http://www.w3.org/1999/02/22-rdf-syntax-ns#"
   xmlns:svg="http://www.w3.org/2000/svg"
   xmlns="http://www.w3.org/2000/svg"
   xmlns:sodipodi="http://sodipodi.sourceforge.net/DTD/sodipodi-0.dtd"
   xmlns:inkscape="http://www.inkscape.org/namespaces/inkscape"
   version="1.1"
   id="Layer_1"
   x="0"
   y="0"
   width="72"
   height="46.8"
   viewBox="0 0 72 46.8"
   enable-background="new 0 0 72 46.8"
   xml:space="preserve"
   inkscape:version="0.91 r13725"
   sodipodi:docname="rain_WS100.svg"><metadata
     id="metadata121"><rdf:RDF><cc:Work
         rdf:about=""><dc:format>image/svg+xml</dc:format><dc:type
           rdf:resource="http://purl.org/dc/dcmitype/StillImage" /></cc:Work></rdf:RDF></metadata><defs
     id="defs119"><inkscape:perspective
       sodipodi:type="inkscape:persp3d"
       inkscape:vp_x="0 : 23.4 : 1"
       inkscape:vp_y="0 : 1000 : 0"
       inkscape:vp_z="72 : 23.4 : 1"
       inkscape:persp3d-origin="36 : 15.6 : 1"
       id="perspective3486" /></defs><sodipodi:namedview
     pagecolor="#ffffff"
     bordercolor="#666666"
     borderopacity="1"
     objecttolerance="10"
     gridtolerance="10"
     guidetolerance="10"
     inkscape:pageopacity="0"
     inkscape:pageshadow="2"
     inkscape:window-width="1396"
     inkscape:window-height="836"
     id="namedview117"
     showgrid="false"
     inkscape:zoom="12.17795"
     inkscape:cx="33.162763"
     inkscape:cy="22.170339"
     inkscape:window-x="0"
     inkscape:window-y="0"
     inkscape:window-maximized="0"
     inkscape:current-layer="icon_1_" /><g
     id="breadboard"
     transform="scale(1.0096774,1)"><g
       id="icon_1_"><g
         id="_x3C_desc_x3E_" /><path
         style="fill:#e72d2f"
         d="m 0,0 0,46.800781 72.697266,0 0,-46.800781 z m 32.976562,3.0273438 c 0.928554,0.02873 1.544442,0.6531179 1.574219,1.5136718 C 34.551226,5.3733 33.788669,5.9944428 33.0625,5.9941406 32.337093,5.9934652 31.516869,5.4301444 31.488281,4.4824219 31.489025,3.8257846 32.077805,3.0280181 32.976562,3.0273438 Z m 7.348551,0.079448 c 0.753618,-3.549e-4 1.539055,0.5162719 1.481364,1.4800403 -3.74e-4,0.6734458 -0.582585,1.451363 -1.481364,1.4510081 -0.810919,-0.058673 -1.479037,-0.5459859 -1.47941,-1.5671371 3.73e-4,-0.8179254 0.726555,-1.3633024 1.47941,-1.3639113 z m 7.258343,-3.654e-4 c 0.593174,-1.31e-5 1.451501,0.4968117 1.451637,1.4804057 0.02889,0.5771425 -0.452012,1.3933221 -1.48067,1.393309 -0.767368,1.37e-5 -1.42247,-0.6129404 -1.393574,-1.4804057 0.08723,-0.8674654 0.829432,-1.3933227 1.422607,-1.393309 z M 7.0644531,4.1328125 c 1.6124548,0 3.1249999,1.2272188 3.1249999,2.8242187 0,1.5970003 -1.3074669,3.1230468 -2.9199218,3.1230468 -1.6124546,0 -2.9179687,-1.295578 -2.9179687,-2.892578 0,-1.597 1.2236092,-3.0546875 2.7128906,-3.0546875 z M 65.427734,4.296875 c 1.612455,0 2.917969,1.293625 2.917969,2.890625 0,1.597 -1.305514,2.890625 -2.917969,2.890625 -1.612454,0 -2.919922,-1.293625 -2.919922,-2.890625 10e-7,-1.597 1.307468,-2.890625 2.919922,-2.890625 z M 25.443359,41.744141 c 0.811781,0 1.470703,0.653031 1.470703,1.457031 10e-7,0.804 -0.658922,1.455078 -1.470703,1.455078 -0.81178,0 -1.46875,-0.651078 -1.46875,-1.455078 0,-0.804 0.65697,-1.457031 1.46875,-1.457031 z m 7.269532,0 c 0.81178,0 1.470703,0.653031 1.470703,1.457031 0,0.804 -0.658923,1.455078 -1.470703,1.455078 -0.811781,0 -1.46875,-0.651078 -1.46875,-1.455078 0,-0.804 0.656969,-1.457031 1.46875,-1.457031 z m 7.269531,0 c 0.811781,0 1.470703,0.653031 1.470703,1.457031 0,0.804 -0.658922,1.455078 -1.470703,1.455078 -0.811781,0 -1.470703,-0.651078 -1.470703,-1.455078 0,-0.804 0.658922,-1.457031 1.470703,-1.457031 z m 7.269531,0 c 0.811781,0 1.470703,0.653031 1.470703,1.457031 0,0.804 -0.658922,1.455078 -1.470703,1.455078 -0.811781,0 -1.46875,-0.651078 -1.46875,-1.455078 0,-0.804 0.656969,-1.457031 1.46875,-1.457031 z m 7.269531,0 c 0.811781,0 1.470704,0.653031 1.470704,1.457031 -10e-7,0.804 -0.658923,1.455078 -1.470704,1.455078 -0.81178,0 -1.470703,-0.651078 -1.470703,-1.455078 0,-0.804 0.658923,-1.457031 1.470703,-1.457031 z"
         transform="scale(0.99041535,1)"
         id="path6"
         inkscape:connector-curvature="0"
         sodipodi:nodetypes="ccccccccccccccccccccsssssssssssssssssssssssssssssssssss" /><g
         id="silkscreen"><path
           id="OSHWA"
           d="m 7.7332993,24.271441 -1.116,0 -0.215,1.231 c -0.311,0.077 -0.604,0.201 -0.87,0.361 l -1.023,-0.718 -0.788,0.789 0.719,1.024 c -0.16,0.267 -0.282,0.559 -0.359,0.868 l -1.234,0.216 0,1.115 1.234,0.216 c 0.076,0.309 0.199,0.602 0.359,0.868 l -0.719,1.025 0.788,0.789 1.023,-0.719 c 0.267,0.161 0.56,0.284 0.87,0.362 l 0.215,1.23 1.116,0 0.215,-1.228 c 0.3120001,-0.077 0.605,-0.201 0.874,-0.361 l 1.0200003,0.716 0.7880004,-0.789 -0.7150004,-1.019 c 0.099,-0.162 0.1820004,-0.333 0.2510004,-0.512 l -1.8780007,-0.694 c -0.175,0.44 -0.606,0.751 -1.108,0.751 -0.659,0 -1.192,-0.534 -1.192,-1.192 0,-0.658 0.534,-1.192 1.192,-1.192 0.502,0 0.933,0.31 1.108,0.751 l 1.8780007,-0.694 c -0.068,-0.179 -0.152,-0.35 -0.2510004,-0.512 l 0.7150004,-1.019 -0.7880004,-0.789 -1.0200003,0.716 c -0.269,-0.161 -0.563,-0.285 -0.874,-0.361 l -0.215,-1.229 z"
           inkscape:connector-curvature="0"
           style="fill:#ffffff" /><path
           id="SFE_Flame"
           d="m 4.2080979,16.275165 c 0,0 0.485,-0.114 0.553,0.251 0.045,0.255 -0.208,0.666 -0.459,0.874 -0.311,0.255 -0.556,0.223 -0.773,0.025 -0.329,-0.299 -0.202,-0.808 -0.202,-0.808 0,0 -0.8210001,0.935 -0.148,1.91 0.597,0.868 1.411,0.618 2.121,-0.164 0.643,-0.707 1.347,-0.143 1.255,0.569 -0.062,0.487 -0.453,0.686 -0.693,0.569 -0.206,-0.102 -0.332,-0.451 -0.332,-0.451 0,0 -0.163,0.402 0.015,0.875 0.16,0.424 0.512,0.775 1.391,0.747 l 4.0780001,0 c 0,0 -0.542,-0.439 -1.0920001,-0.954 -0.62,-0.578 -1.041,-0.842 -0.992,-1.436 0.069,-1.123 -0.43,-1.936 -1.23,-2.487 -1.541,-1.063 -3.262,-0.232 -3.492,0.48 z"
           inkscape:connector-curvature="0"
           style="fill:#ffffff" /><text
           id="name"
           font-size="3.2"
           x="-35.686188"
           y="13.941528"
           style="font-size:3.20000005;font-family:OCRA;fill:#ffffff"
           transform="matrix(0,-1,1,0,0,0)">RS485 Breakout</text>
<text
           id="text"
           transform="matrix(0,-1,1,0,0,0)"
           font-size="3.5"
           style="font-size:3.5;font-family:OCRA;fill:#ffffff"
           x="-39.599964"
           y="54.947407">GND</text>
<text
           id="text_6_"
           transform="matrix(0,-1,1,0,0,0)"
           font-size="3.5"
           style="font-size:3.5;font-family:OCRA;fill:#ffffff"
           x="-39.599964"
           y="40.281914">Tx</text>
<g
           id="g21"
           transform="translate(1.4780813,0.41057813)"><text
             id="text_2_"
             transform="matrix(0,-1,1,0,24.8576,39.2715)"
             font-size="3.5"
             style="font-size:3.5;font-family:OCRA;fill:#ffffff">3-5V</text>
<text
             id="text_3_"
             transform="matrix(0,-1,1,0,28.0451,39.2715)"
             font-size="3.5"
             style="font-size:3.5;font-family:OCRA;fill:#ffffff" />
<text
             style="font-size:3.5;font-family:OCRA;fill:#ffffff"
             font-size="3.5"
             transform="matrix(0,-1,1,0,0,0)"
             id="text3575"
             x="-10.120453"
             y="32.583817">B</text>
<text
             y="39.74073"
             x="-10.120453"
             id="text3577"
             transform="matrix(0,-1,1,0,0,0)"
             font-size="3.5"
             style="font-size:3.5;font-family:OCRA;fill:#ffffff">A</text>
<text
             y="47.060307"
             x="-10.038338"
             id="text3579"
             transform="matrix(0,-1,1,0,0,0)"
             font-size="3.5"
             style="font-size:3.5;font-family:OCRA;fill:#ffffff">G</text>
</g><g
           id="g25"
           transform="translate(-2.5455844,0.32846251)"><text
             id="text_5_"
             transform="matrix(0,-1,1,0,32.9814,39.2715)"
             font-size="3.5"
             style="font-size:3.5;font-family:OCRA;fill:#ffffff" />
<text
             id="text_4_"
             transform="matrix(0,-1,1,0,35.9999,39.2715)"
             font-size="3.5"
             style="font-size:3.5;font-family:OCRA;fill:#ffffff">Rx</text>
</g><g
           id="g29"><g
             id="g31"
             transform="translate(-2.0528907,0.49269376)"><text
               id="text_8_"
               transform="matrix(0,-1,1,0,46.5847,39.2715)"
               font-size="3.5"
               style="font-size:3.5;font-family:OCRA;fill:#ffffff" />
<text
               id="text_7_"
               transform="matrix(0,-1,1,0,49.6472,39.2715)"
               font-size="3.5"
               style="font-size:3.5;font-family:OCRA;fill:#ffffff">RTS</text>
</g></g></g><g
         id="_x3C_Group_x3E_"><g
           id="g48"><rect
             x="40.449001"
             y="24.503"
             width="3.118"
             height="2.835"
             id="rect50"
             style="fill:#ef4130" /><rect
             x="35.630001"
             y="24.503"
             width="3.118"
             height="2.835"
             id="rect52"
             style="fill:#ef4130" /><rect
             x="35.630001"
             y="24.503"
             width="7.9369998"
             height="2.835"
             id="rect54"
             style="fill:#ef4130" /></g><g
           id="g56"><rect
             x="26.759001"
             y="20.197001"
             width="3.118"
             height="2.835"
             id="rect58"
             style="fill:#ef4130" /><rect
             x="21.940001"
             y="20.197001"
             width="3.118"
             height="2.835"
             id="rect60"
             style="fill:#ef4130" /><rect
             x="21.940001"
             y="20.183001"
             width="7.9369998"
             height="2.835"
             id="rect62"
             style="fill:#ef4130" /></g><g
           id="g64"><rect
             x="26.759001"
             y="14.437"
             width="3.118"
             height="2.835"
             id="rect66"
             style="fill:#ef4130" /><rect
             x="21.940001"
             y="14.437"
             width="3.118"
             height="2.835"
             id="rect68"
             style="fill:#ef4130" /><rect
             x="21.940001"
             y="14.437"
             width="7.9369998"
             height="2.835"
             id="rect70"
             style="fill:#ef4130" /></g><g
           id="g72"><rect
             x="26.759001"
             y="8.677"
             width="3.118"
             height="2.835"
             id="rect74"
             style="fill:#ef4130" /><rect
             x="21.940001"
             y="8.677"
             width="3.118"
             height="2.835"
             id="rect76"
             style="fill:#ef4130" /><rect
             x="21.940001"
             y="8.6630001"
             width="7.9369998"
             height="2.835"
             id="rect78"
             style="fill:#ef4130" /></g><g
           id="g80"><rect
             x="46.813"
             y="20.462"
             width="2.835"
             height="3.118"
             id="rect82"
             style="fill:#ef4130" /><rect
             x="46.813"
             y="20.462"
             width="2.835"
             height="7.9369998"
             id="rect84"
             style="fill:#ef4130" /><rect
             x="46.813"
             y="25.281"
             width="2.835"
             height="3.118"
             id="rect86"
             style="fill:#ef4130" /></g><g
           id="g88"
           transform="matrix(1.0961401,0,0,1.0780567,-5.9452767,8.0242266)"><g
             id="g90"><g
               id="g92"><g
                 transform="matrix(0.7071,-0.7071,0.7071,0.7071,5.2793,48.3383)"
                 id="g94"><rect
                   id="top_1_"
                   x="40.09"
                   y="4.9089999"
                   transform="matrix(-0.7071,-0.7071,0.7071,-0.7071,70.6772,39.4284)"
                   width="6.829"
                   height="0.33500001"
                   style="fill:#3e3e3e" /></g><g
                 transform="matrix(0.7073,-0.7069,0.7069,0.7073,8.0849,41.538)"
                 id="g97"><rect
                   id="bottom_1_"
                   x="39.007999"
                   y="2.0109999"
                   transform="matrix(-0.7073,-0.7069,0.7069,-0.7073,70.8896,33.7077)"
                   width="6.829"
                   height="0.33500001"
                   style="fill:#010101" /></g><polygon
                 id="left_2_"
                 points="42.7,13.257 43.049,12.92 43.046,21.334 42.699,20.996 "
                 style="fill:#1f2020" /><polygon
                 id="left_1_"
                 points="36.555,20.997 36.216,21.336 36.216,12.92 36.553,13.257 "
                 style="fill:#1f2020" /><g
                 transform="matrix(0.7071,-0.7071,0.7071,0.7071,6.6859,44.9441)"
                 id="g102"><rect
                   id="middle_1_"
                   x="39.665001"
                   y="-0.46700001"
                   transform="matrix(-0.7071,-0.7071,0.7071,-0.7071,70.7834,36.5724)"
                   width="6.6030002"
                   height="8.1870003"
                   style="fill:#30302f" /></g></g></g></g></g><g
         id="copper1"><g
           id="g106" /><circle
           id="connector7pad"
           cx="53.999001"
           cy="43.201"
           r="2.052"
           style="fill:none;stroke:#9a916c;stroke-width:1.22399998" /><circle
           id="connector6pad"
           cx="46.799999"
           cy="43.201"
           r="2.052"
           style="fill:none;stroke:#9a916c;stroke-width:1.22399998" /><circle
           id="connector5pad"
           cx="39.599415"
           cy="43.225929"
           r="2.052"
           style="fill:none;stroke:#9a916c;stroke-width:1.22399998" /><circle
           id="connector4pad"
           cx="32.400002"
           cy="43.201"
           r="2.052"
           style="fill:none;stroke:#9a916c;stroke-width:1.22399998" /><circle
           id="connector3pad"
           cx="35.522572"
           cy="35.206722"
           r="2.052"
           transform="matrix(0.96592583,0.25881905,-0.25881905,0.96592583,0,0)"
           style="fill:none;stroke:#9a916c;stroke-width:1.22399998" /></g><g
         id="g3514"
         transform="translate(7.55183,-38.670968)"
         clip-path="none"><g
           id="g3516" /><ellipse
           style="fill:none;stroke:#9a916c;stroke-width:1.22399998"
           cy="43.225929"
           cx="39.599415"
           id="circle3522"
           rx="2.052"
           ry="2.0109422" /><circle
           style="fill:none;stroke:#9a916c;stroke-width:1.22399998"
           r="2.052"
           cy="43.201"
           cx="32.400002"
           id="circle3524" /><ellipse
           style="fill:none;stroke:#9a916c;stroke-width:1.22399998"
           transform="matrix(0.96592583,0.25881905,-0.25881905,0.96592583,0,0)"
           cy="35.206722"
           cx="35.522572"
           id="circle3526"
           rx="2.0843387"
           ry="2.052" /></g></g></g></svg>
