<?xml version="1.0" encoding="UTF-8" standalone="no"?>
<!-- Generator: Adobe Illustrator 16.0.0, SVG Export Plug-In . SVG Version: 6.00 Build 0)  -->

<svg
   xmlns:dc="http://purl.org/dc/elements/1.1/"
   xmlns:cc="http://creativecommons.org/ns#"
   xmlns:rdf="http://www.w3.org/1999/02/22-rdf-syntax-ns#"
   xmlns:svg="http://www.w3.org/2000/svg"
   xmlns="http://www.w3.org/2000/svg"
   xmlns:sodipodi="http://sodipodi.sourceforge.net/DTD/sodipodi-0.dtd"
   xmlns:inkscape="http://www.inkscape.org/namespaces/inkscape"
   version="1.2"
   id="Ebene_1"
   x="0px"
   y="0px"
   width="85.563004"
   height="113.14"
   viewBox="0 0 85.56301 113.14"
   xml:space="preserve"
   inkscape:version="0.91 r13725"
   sodipodi:docname="xbee_s82.svg"><metadata
     id="metadata342"><rdf:RDF><cc:Work
         rdf:about=""><dc:format>image/svg+xml</dc:format><dc:type
           rdf:resource="http://purl.org/dc/dcmitype/StillImage" /><dc:title></dc:title></cc:Work></rdf:RDF></metadata><defs
     id="defs340" /><sodipodi:namedview
     pagecolor="#ffffff"
     bordercolor="#666666"
     borderopacity="1"
     objecttolerance="10"
     gridtolerance="10"
     guidetolerance="10"
     inkscape:pageopacity="0"
     inkscape:pageshadow="2"
     inkscape:window-width="1402"
     inkscape:window-height="863"
     id="namedview338"
     showgrid="false"
     inkscape:snap-smooth-nodes="false"
     inkscape:object-nodes="false"
     inkscape:snap-intersection-paths="false"
     inkscape:object-paths="false"
     inkscape:snap-bbox="true"
     inkscape:zoom="8"
     inkscape:cx="53.120059"
     inkscape:cy="137.92625"
     inkscape:window-x="0"
     inkscape:window-y="0"
     inkscape:window-maximized="0"
     inkscape:current-layer="g15354"
     fit-margin-top="68.604"
     fit-margin-bottom="-7"
     fit-margin-right="74.27"
     borderlayer="false"
     showguides="false" /><g
     id="g5668"
     transform="matrix(0.81183938,0,0,0.92114521,34.857204,62.780099)"><g
       id="g12496"
       transform="matrix(0.90341141,0,0,1,45.06518,2.0793713)"><g
         transform="matrix(1.539709,0,0,1.3570023,78.737162,-54.204018)"
         id="g11812"><g
           id="breadboard-1"><g
             transform="translate(0.20000059,-0.20000061)"
             id="g11548" /></g></g><g
         id="g14609"
         transform="matrix(1.7043277,0,0,1.3570024,-40.204695,-180.52419)"><rect
           y="58.835999"
           x="65.519997"
           width="2.3670001"
           id="connector14pin-4"
           height="2.3670001"
           style="fill:none" /><rect
           y="66.037003"
           x="65.519997"
           width="2.3670001"
           id="connector13pin-1"
           height="2.3670001"
           style="fill:none" /><rect
           y="73.236"
           x="65.519997"
           width="2.3670001"
           id="connector12pin-2"
           height="2.3670001"
           style="fill:none" /><rect
           y="80.438004"
           x="65.519997"
           width="2.3670001"
           id="connector11pin-3"
           height="2.3670001"
           style="fill:none" /><rect
           y="87.635002"
           x="65.519997"
           width="2.3670001"
           id="connector10pin-9"
           height="2.369"
           style="fill:none" /><rect
           y="87.639"
           x="0.71799999"
           width="2.368"
           id="connector9pin-7"
           height="2.3670001"
           style="fill:none" /><rect
           y="80.439003"
           x="0.71799999"
           width="2.368"
           id="connector8pin-7"
           height="2.3670001"
           style="fill:none" /><rect
           y="73.237999"
           x="0.71799999"
           width="2.368"
           id="connector7pin-5"
           height="2.3670001"
           style="fill:none" /><rect
           y="66.037003"
           x="0.71799999"
           width="2.368"
           id="connector6pin-8"
           height="2.3670001"
           style="fill:none" /><rect
           y="58.838001"
           x="0.71799999"
           width="2.368"
           id="connector5pin-8"
           height="2.3670001"
           style="fill:none" /><rect
           y="59.428001"
           x="66.111"
           width="1.184"
           id="connector14terminal"
           height="1.184"
           style="fill:none" /><rect
           y="66.628998"
           x="66.111"
           width="1.184"
           id="connector13terminal"
           height="1.184"
           style="fill:none" /><rect
           y="73.828003"
           x="66.111"
           width="1.184"
           id="connector12terminal"
           height="1.184"
           style="fill:none" /><rect
           y="81.028999"
           x="66.111"
           width="1.184"
           id="connector11terminal"
           height="1.184"
           style="fill:none" /><rect
           y="88.226997"
           x="66.111"
           width="1.184"
           id="connector10terminal"
           height="1.1849999"
           style="fill:none" /><rect
           y="88.230003"
           x="1.3099999"
           width="1.184"
           id="connector9terminal"
           height="1.184"
           style="fill:none" /><rect
           y="81.030998"
           x="1.3099999"
           width="1.184"
           id="connector8terminal"
           height="1.184"
           style="fill:none" /><rect
           y="73.830002"
           x="1.3099999"
           width="1.184"
           id="connector7terminal"
           height="1.184"
           style="fill:none" /><rect
           y="66.628998"
           x="1.3099999"
           width="1.184"
           id="connector6terminal"
           height="1.184"
           style="fill:none" /><rect
           y="59.43"
           x="1.3099999"
           width="1.184"
           id="connector5terminal"
           height="1.184"
           style="fill:none" /><g
           transform="translate(46.800134,75.60023)"
           id="g15354"><g
             id="g16134"
             transform="translate(-161.40047,-87.200265)"><path
               sodipodi:nodetypes="ccccccc"
               style="fill:#0f7391"
               inkscape:connector-curvature="0"
               id="path15358"
               d="m 149.58638,93.000413 0.0698,0.05337 -0.15701,90.522577 -68.450753,0 -0.0785,-90.522577 -4.1e-4,-0.150371 z" /><rect
               style="fill:#cccccc"
               y="112.59315"
               x="86.602402"
               height="66.503792"
               width="55.510384"
               id="rect15360" /><rect
               ry="2.2501287"
               y="115.59328"
               x="89.443947"
               height="59.503384"
               width="50.181381"
               id="rect15362"
               style="fill:#ffffff" /><ellipse
               ry="3.7502134"
               rx="3.7244868"
               cy="104.09263"
               cx="136.73357"
               id="ellipse15364"
               style="fill:#b3b37e;fill-opacity:1" /><text
               transform="scale(0.97012085,1.0307994)"
               sodipodi:linespacing="0.99999998%"
               id="text15366"
               y="129.45592"
               x="100.9386"
               style="font-style:normal;font-weight:normal;font-size:46.31505585px;line-height:0.99999998%;font-family:sans-serif;letter-spacing:0px;word-spacing:0px;fill:#000000;fill-opacity:1;stroke:none;stroke-width:1px;stroke-linecap:butt;stroke-linejoin:miter;stroke-opacity:1"
               xml:space="preserve"><tspan
                 style="font-size:4.34203625px;line-height:0.99999998%"
                 y="129.45592"
                 x="100.9386"
                 id="tspan15368"
                 sodipodi:role="line">DIGI</tspan></text>
<text
               transform="scale(0.94414238,1.0591623)"
               sodipodi:linespacing="0.99999998%"
               id="text15370"
               y="134.61855"
               x="100.57565"
               style="font-style:normal;font-weight:normal;font-size:2.65189219px;line-height:0.99999998%;font-family:sans-serif;letter-spacing:0px;word-spacing:0px;fill:#000000;fill-opacity:1;stroke:none;stroke-width:1px;stroke-linecap:butt;stroke-linejoin:miter;stroke-opacity:1"
               xml:space="preserve"><tspan
                 style="font-size:3.97783804px"
                 y="134.61855"
                 x="100.57565"
                 id="tspan15372"
                 sodipodi:role="line">XB8-DMUS-</tspan><tspan
                 id="tspan15374"
                 y="134.65833"
                 x="100.57565"
                 sodipodi:role="line" /></text>
<text
               transform="scale(0.94414238,1.0591623)"
               xml:space="preserve"
               style="font-style:normal;font-weight:normal;font-size:2.65189219px;line-height:0.99999998%;font-family:sans-serif;letter-spacing:0px;word-spacing:0px;fill:#000000;fill-opacity:1;stroke:none;stroke-width:1px;stroke-linecap:butt;stroke-linejoin:miter;stroke-opacity:1"
               x="100.57565"
               y="138.36891"
               id="text15376"
               sodipodi:linespacing="0.99999998%"><tspan
                 style="font-size:3.97783804px"
                 sodipodi:role="line"
                 id="tspan15378"
                 x="100.57565"
                 y="138.36891">  002 revH</tspan><tspan
                 sodipodi:role="line"
                 x="100.57565"
                 y="138.40869"
                 id="tspan15380" /></text>
<text
               transform="scale(1.0044306,0.99558896)"
               sodipodi:linespacing="0.99999998%"
               id="text15382"
               y="152.79019"
               x="112.66136"
               style="font-style:normal;font-weight:normal;font-size:2.82122874px;line-height:0.99999998%;font-family:sans-serif;letter-spacing:0px;word-spacing:0px;fill:#000000;fill-opacity:1;stroke:none;stroke-width:1px;stroke-linecap:butt;stroke-linejoin:miter;stroke-opacity:1"
               xml:space="preserve"><tspan
                 style="font-size:4.23184299px"
                 y="152.79019"
                 x="112.66136"
                 id="tspan15384"
                 sodipodi:role="line">0013A200</tspan><tspan
                 id="tspan15386"
                 y="152.8325"
                 x="112.66136"
                 sodipodi:role="line" /></text>
<text
               xml:space="preserve"
               style="font-style:normal;font-weight:normal;font-size:2.79453635px;line-height:0.99999998%;font-family:sans-serif;letter-spacing:0px;word-spacing:0px;fill:#000000;fill-opacity:1;stroke:none;stroke-width:1px;stroke-linecap:butt;stroke-linejoin:miter;stroke-opacity:1"
               x="113.74989"
               y="155.49429"
               id="text15388"
               sodipodi:linespacing="0.99999998%"
               transform="scale(0.99492736,1.0050985)"><tspan
                 style="font-size:4.19180393px"
                 sodipodi:role="line"
                 id="tspan15390"
                 x="113.74989"
                 y="155.49429">415CXBS8</tspan><tspan
                 sodipodi:role="line"
                 x="113.74989"
                 y="155.53621"
                 id="tspan15392" /></text>
<rect
               ry="0"
               y="148.71376"
               x="98.475449"
               height="11.571551"
               width="11.022939"
               id="rect15394"
               style="fill:#000000;fill-opacity:0.4625;stroke:#000000;stroke-width:0.56086546;stroke-linejoin:bevel;stroke-miterlimit:4;stroke-dasharray:none;stroke-opacity:1" /><g
               transform="matrix(0.99780982,0,0,1.1235136,80.694323,92.903409)"
               id="g15396"><circle
                 style="fill:none"
                 r="1.647"
                 cy="71.886002"
                 cx="3.302"
                 id="circle15398" /><circle
                 style="fill:none"
                 r="1.647"
                 cy="66.217003"
                 cx="3.302"
                 id="circle15400" /><circle
                 style="fill:none"
                 r="1.647"
                 cy="60.547001"
                 cx="3.302"
                 id="circle15402" /><circle
                 style="fill:none"
                 r="1.647"
                 cy="54.877998"
                 cx="3.302"
                 id="circle15404" /><circle
                 style="fill:none"
                 r="1.647"
                 cy="49.209"
                 cx="3.302"
                 id="circle15406" /><circle
                 style="fill:none"
                 r="1.647"
                 cy="43.539001"
                 cx="3.302"
                 id="circle15408" /><circle
                 style="fill:none"
                 r="1.647"
                 cy="37.869999"
                 cx="3.302"
                 id="circle15410" /><circle
                 style="fill:none"
                 r="1.647"
                 cy="32.201"
                 cx="3.302"
                 id="circle15412" /><circle
                 style="fill:none"
                 r="1.647"
                 cy="26.531"
                 cx="3.302"
                 id="circle15414" /><circle
                 style="fill:none"
                 r="1.647"
                 cy="20.863001"
                 cx="3.302"
                 id="circle15416" /><circle
                 style="fill:none"
                 r="1.647"
                 cy="71.886002"
                 cx="65.664001"
                 id="circle15418" /><circle
                 style="fill:none"
                 r="1.647"
                 cy="66.217003"
                 cx="65.664001"
                 id="circle15420" /><circle
                 style="fill:none"
                 r="1.647"
                 cy="60.547001"
                 cx="65.664001"
                 id="circle15422" /><circle
                 style="fill:none"
                 r="1.647"
                 cy="54.877998"
                 cx="65.664001"
                 id="circle15424" /><circle
                 style="fill:none"
                 r="1.647"
                 cy="49.209"
                 cx="65.664001"
                 id="circle15426" /><circle
                 style="fill:none"
                 r="1.647"
                 cy="43.539001"
                 cx="65.664001"
                 id="circle15428" /><circle
                 style="fill:none"
                 r="1.647"
                 cy="37.869999"
                 cx="65.664001"
                 id="circle15430" /><circle
                 style="fill:none"
                 r="1.647"
                 cy="32.201"
                 cx="65.664001"
                 id="circle15432" /><circle
                 style="fill:none"
                 r="1.647"
                 cy="26.531"
                 cx="65.664001"
                 id="circle15434" /><circle
                 style="fill:none"
                 r="1.647"
                 cy="20.863001"
                 cx="65.664001"
                 id="circle15436" /></g><g
               transform="matrix(0.99780982,0,0,1.1235136,80.694323,92.903409)"
               id="g15438"><g
                 transform="matrix(2.589086,0,0,2.3187472,-70.362901,-0.513928)"
                 id="g15440"><path
                   style="fill:none;stroke:#ffffff;stroke-width:0.23819999"
                   inkscape:connector-curvature="0"
                   id="path15442"
                   d="m 27.891,1.702 12.819,0 m -12.819,4.417 12.819,0" /><polygon
                   style="fill:#ffffff"
                   id="polygon15444"
                   points="29.929,5.242 29.898,5.335 31.119,5.335 31.055,5.179 30.993,5.117 30.93,4.992 30.367,3.552 31.368,2.584 31.555,2.396 31.805,2.241 31.119,2.241 31.087,2.334 31.055,2.396 30.993,2.459 30.899,2.521 30.243,3.209 29.961,2.521 29.929,2.459 29.929,2.334 29.961,2.241 28.741,2.241 28.836,2.396 28.897,2.459 29.492,3.898 28.335,4.992 28.21,5.117 28.116,5.179 27.896,5.335 28.585,5.335 28.647,5.211 28.678,5.179 28.741,5.117 29.617,4.241 29.835,4.803 29.929,5.054 " /><path
                   style="fill:#ffffff"
                   inkscape:connector-curvature="0"
                   id="path15446"
                   d="M 40.562,3.271 40.529,3.208 40.5,3.147 40.436,3.12 40.374,3.088 40.277,3.053 l -0.092,0 -1.533,0 C 38.191,3.082 38.09,3.277 37.933,3.678 L 37.681,4.74 C 37.63,5.1 37.667,5.303 38.088,5.335 l 2.033,0 0.125,-0.404 -0.123,0.029 -0.124,0.031 -1.408,0 -0.063,-0.031 -0.028,0 0,-0.032 -0.034,-0.031 0.033,-0.096 0.093,-0.404 1.812,0 0.158,-0.721 0.029,-0.125 0,-0.22 -0.029,-0.06 z m -0.782,0.313 -0.131,0.47 -0.969,0 0.093,-0.47 0.036,-0.095 0.029,-0.029 0.062,-0.032 0.063,0 0.721,0 0.063,0 0.022,0.03 0.011,0.126 0,0 z" /><path
                   style="fill:#ffffff"
                   inkscape:connector-curvature="0"
                   id="path15448"
                   d="M 37.56,3.209 37.528,3.146 37.467,3.12 37.403,3.088 37.31,3.056 l -0.095,0 -1.535,0 c -0.458,0.029 -0.56,0.228 -0.717,0.625 l -0.251,1.063 c -0.05,0.359 -0.016,0.563 0.405,0.594 l 2.021,0 0.126,-0.404 -0.122,0.029 -0.122,0.032 -1.396,0 -0.065,-0.034 -0.034,0 0,-0.033 -0.025,-0.031 0.022,-0.096 0.104,-0.404 1.812,0 0.154,-0.721 0.033,-0.125 0,-0.22 L 37.59,3.27 37.56,3.209 Z m -0.75,0.375 -0.126,0.47 -0.969,0 0.094,-0.47 0.031,-0.096 0.033,-0.029 0.062,-0.03 0.063,0 0.718,0 0.062,0 0.032,0.03 0,0.125 0,0 z" /><path
                   style="fill:#ffffff"
                   inkscape:connector-curvature="0"
                   id="path15450"
                   d="M 34.621,2.302 34.558,2.273 34.464,2.24 l -0.124,0 -2.377,0 0,0.22 -0.033,0.218 -0.562,2.252 -0.063,0.188 -0.032,0.125 -0.062,0.094 2.377,0 0.156,0 0.094,-0.029 c 0.2,-0.099 0.407,-0.175 0.437,-0.438 l 0.063,-0.125 0.125,-0.501 0,-0.285 L 34.4,3.896 34.34,3.864 34.277,3.833 34.183,3.804 l -0.281,0 c 0.282,-0.092 0.396,0.069 0.625,-0.188 L 34.591,3.553 34.653,3.431 C 34.685,3.246 35.002,2.377 34.621,2.302 Z M 33.62,4.178 33.495,4.741 33.432,4.835 33.4,4.896 l -0.062,0.028 -0.063,0 -1.025,0 0.251,-0.97 1.021,0 0.031,0.026 0.032,0 0.031,0.03 0.021,0.063 -0.017,0.105 z m 0.312,-1.312 -0.125,0.5 -0.031,0.095 -0.026,0.061 -0.063,0.029 -0.097,0.034 -1.001,0 0.218,-0.938 1.032,0 0.031,0 0.028,0.029 0.031,0.03 0.003,0.16 0,0 z" /></g></g><path
               sodipodi:nodetypes="ccccccc"
               inkscape:connector-curvature="0"
               id="path15452"
               d="m 104.63687,120.58529 -11.009861,13.70376 0.177043,36.06658 43.027578,0 0,-36.21657 -11.75923,-13.80378 z"
               style="fill:none;stroke:#000000;stroke-width:0.60993516;stroke-linejoin:bevel;stroke-miterlimit:4;stroke-dasharray:none;stroke-opacity:1" /><g
               transform="translate(81.000233,2.1000064)"
               id="g15454"><g
                 id="g15456"><g
                   transform="translate(0,88.000274)"
                   id="g15458"><rect
                     id="rect15460"
                     y="22.867001"
                     x="65.553001"
                     width="2.2969999"
                     height="2.299"
                     style="fill:#8d8c8c" /><rect
                     id="rect15462"
                     y="23.426001"
                     x="66.111"
                     width="1.182"
                     height="1.182"
                     style="fill:#8c8663" /><polygon
                     id="polygon15464"
                     points="66.111,23.426 67.291,23.426 67.85,22.867 65.553,22.867 "
                     style="fill:#b8af82" /><polygon
                     id="polygon15466"
                     points="67.291,23.426 67.85,22.867 67.85,25.166 67.291,24.607 "
                     style="fill:#80795b" /><polygon
                     id="polygon15468"
                     points="67.291,24.607 67.85,25.166 65.553,25.166 66.111,24.607 "
                     style="fill:#5e5b43" /><polygon
                     id="polygon15470"
                     points="66.111,23.426 66.111,24.607 65.553,25.166 65.553,22.867 "
                     style="fill:#9a916c" /><rect
                     id="rect15472"
                     y="30.068001"
                     x="65.553001"
                     width="2.2969999"
                     height="2.299"
                     style="fill:#8d8c8c" /><rect
                     id="rect15474"
                     y="30.625"
                     x="66.111"
                     width="1.182"
                     height="1.184"
                     style="fill:#8c8663" /><polygon
                     id="polygon15476"
                     points="66.111,30.625 67.291,30.625 67.85,30.068 65.553,30.068 "
                     style="fill:#b8af82" /><polygon
                     id="polygon15478"
                     points="67.291,30.625 67.85,30.068 67.85,32.367 67.291,31.809 "
                     style="fill:#80795b" /><polygon
                     id="polygon15480"
                     points="67.291,31.809 67.85,32.367 65.553,32.367 66.111,31.809 "
                     style="fill:#5e5b43" /><polygon
                     id="polygon15482"
                     points="66.111,30.625 66.111,31.809 65.553,32.367 65.553,30.068 "
                     style="fill:#9a916c" /><rect
                     id="rect15484"
                     y="37.268002"
                     x="65.553001"
                     width="2.2969999"
                     height="2.299"
                     style="fill:#8d8c8c" /><rect
                     id="rect15486"
                     y="37.826"
                     x="66.111"
                     width="1.182"
                     height="1.182"
                     style="fill:#8c8663" /><polygon
                     id="polygon15488"
                     points="66.111,37.826 67.291,37.826 67.85,37.268 65.553,37.268 "
                     style="fill:#b8af82" /><polygon
                     id="polygon15490"
                     points="67.291,37.826 67.85,37.268 67.85,39.566 67.291,39.008 "
                     style="fill:#80795b" /><polygon
                     id="polygon15492"
                     points="67.291,39.008 67.85,39.566 65.553,39.566 66.111,39.008 "
                     style="fill:#5e5b43" /><polygon
                     id="polygon15494"
                     points="66.111,37.826 66.111,39.008 65.553,39.566 65.553,37.268 "
                     style="fill:#9a916c" /><rect
                     id="rect15496"
                     y="44.467999"
                     x="65.553001"
                     width="2.2969999"
                     height="2.299"
                     style="fill:#8d8c8c" /><rect
                     id="rect15498"
                     y="45.025002"
                     x="66.111"
                     width="1.182"
                     height="1.184"
                     style="fill:#8c8663" /><polygon
                     id="polygon15500"
                     points="66.111,45.025 67.291,45.025 67.85,44.468 65.553,44.468 "
                     style="fill:#b8af82" /><polygon
                     id="polygon15502"
                     points="67.291,45.025 67.85,44.468 67.85,46.768 67.291,46.208 "
                     style="fill:#80795b" /><polygon
                     id="polygon15504"
                     points="67.291,46.208 67.85,46.768 65.553,46.768 66.111,46.208 "
                     style="fill:#5e5b43" /><polygon
                     id="polygon15506"
                     points="66.111,45.025 66.111,46.208 65.553,46.768 65.553,44.468 "
                     style="fill:#9a916c" /><rect
                     id="rect15508"
                     y="51.667999"
                     x="65.553001"
                     width="2.2969999"
                     height="2.299"
                     style="fill:#8d8c8c" /><rect
                     id="rect15510"
                     y="52.227001"
                     x="66.111"
                     width="1.182"
                     height="1.183"
                     style="fill:#8c8663" /><polygon
                     id="polygon15512"
                     points="66.111,52.227 67.291,52.227 67.85,51.668 65.553,51.668 "
                     style="fill:#b8af82" /><polygon
                     id="polygon15514"
                     points="67.291,52.227 67.85,51.668 67.85,53.967 67.291,53.408 "
                     style="fill:#80795b" /><polygon
                     id="polygon15516"
                     points="67.291,53.408 67.85,53.967 65.553,53.967 66.111,53.408 "
                     style="fill:#5e5b43" /><polygon
                     id="polygon15518"
                     points="66.111,52.227 66.111,53.408 65.553,53.967 65.553,51.668 "
                     style="fill:#9a916c" /><rect
                     id="rect15520"
                     y="58.868999"
                     x="65.553001"
                     width="2.2969999"
                     height="2.299"
                     style="fill:#8d8c8c" /><rect
                     id="rect15522"
                     y="59.425999"
                     x="66.111"
                     width="1.182"
                     height="1.184"
                     style="fill:#8c8663" /><polygon
                     id="polygon15524"
                     points="66.111,59.426 67.291,59.426 67.85,58.869 65.553,58.869 "
                     style="fill:#b8af82" /><polygon
                     id="polygon15526"
                     points="67.291,59.426 67.85,58.869 67.85,61.168 67.291,60.609 "
                     style="fill:#80795b" /><polygon
                     id="polygon15528"
                     points="67.291,60.609 67.85,61.168 65.553,61.168 66.111,60.609 "
                     style="fill:#5e5b43" /><polygon
                     id="polygon15530"
                     points="66.111,59.426 66.111,60.609 65.553,61.168 65.553,58.869 "
                     style="fill:#9a916c" /><rect
                     id="rect15532"
                     y="66.068001"
                     x="65.553001"
                     width="2.2969999"
                     height="2.299"
                     style="fill:#8d8c8c" /><rect
                     id="rect15534"
                     y="66.626999"
                     x="66.111"
                     width="1.182"
                     height="1.182"
                     style="fill:#8c8663" /><polygon
                     id="polygon15536"
                     points="66.111,66.627 67.291,66.627 67.85,66.068 65.553,66.068 "
                     style="fill:#b8af82" /><polygon
                     id="polygon15538"
                     points="67.291,66.627 67.85,66.068 67.85,68.367 67.291,67.809 "
                     style="fill:#80795b" /><polygon
                     id="polygon15540"
                     points="67.291,67.809 67.85,68.367 65.553,68.367 66.111,67.809 "
                     style="fill:#5e5b43" /><polygon
                     id="polygon15542"
                     points="66.111,66.627 66.111,67.809 65.553,68.367 65.553,66.068 "
                     style="fill:#9a916c" /><rect
                     id="rect15544"
                     y="73.269997"
                     x="65.553001"
                     width="2.2969999"
                     height="2.299"
                     style="fill:#8d8c8c" /><rect
                     id="rect15546"
                     y="73.825996"
                     x="66.111"
                     width="1.182"
                     height="1.184"
                     style="fill:#8c8663" /><polygon
                     id="polygon15548"
                     points="66.111,73.826 67.291,73.826 67.85,73.27 65.553,73.27 "
                     style="fill:#b8af82" /><polygon
                     id="polygon15550"
                     points="67.291,73.826 67.85,73.27 67.85,75.568 67.291,75.01 "
                     style="fill:#80795b" /><polygon
                     id="polygon15552"
                     points="67.291,75.01 67.85,75.568 65.553,75.568 66.111,75.01 "
                     style="fill:#5e5b43" /><polygon
                     id="polygon15554"
                     points="66.111,73.826 66.111,75.01 65.553,75.568 65.553,73.27 "
                     style="fill:#9a916c" /><rect
                     id="rect15556"
                     y="80.469002"
                     x="65.553001"
                     width="2.2969999"
                     height="2.299"
                     style="fill:#8d8c8c" /><rect
                     id="rect15558"
                     y="81.027"
                     x="66.111"
                     width="1.182"
                     height="1.182"
                     style="fill:#8c8663" /><polygon
                     id="polygon15560"
                     points="66.111,81.027 67.291,81.027 67.85,80.469 65.553,80.469 "
                     style="fill:#b8af82" /><polygon
                     id="polygon15562"
                     points="67.291,81.027 67.85,80.469 67.85,82.768 67.291,82.209 "
                     style="fill:#80795b" /><polygon
                     id="polygon15564"
                     points="67.291,82.209 67.85,82.768 65.553,82.768 66.111,82.209 "
                     style="fill:#5e5b43" /><polygon
                     id="polygon15566"
                     points="66.111,81.027 66.111,82.209 65.553,82.768 65.553,80.469 "
                     style="fill:#9a916c" /><rect
                     id="rect15568"
                     y="87.669998"
                     x="65.553001"
                     width="2.2969999"
                     height="2.299"
                     style="fill:#8d8c8c" /><rect
                     id="rect15570"
                     y="88.226997"
                     x="66.111"
                     width="1.182"
                     height="1.1849999"
                     style="fill:#8c8663" /><polygon
                     id="polygon15572"
                     points="66.111,88.227 67.291,88.227 67.85,87.67 65.553,87.67 "
                     style="fill:#b8af82" /><polygon
                     id="polygon15574"
                     points="67.291,88.227 67.85,87.67 67.85,89.969 67.291,89.41 "
                     style="fill:#80795b" /><polygon
                     id="polygon15576"
                     points="67.291,89.41 67.85,89.969 65.553,89.969 66.111,89.41 "
                     style="fill:#5e5b43" /><polygon
                     id="polygon15578"
                     points="66.111,88.227 66.111,89.41 65.553,89.969 65.553,87.67 "
                     style="fill:#9a916c" /></g><g
                   transform="translate(0,88.000274)"
                   id="g15580"><rect
                     id="rect15582"
                     y="22.867001"
                     x="0.75199997"
                     width="2.2969999"
                     height="2.299"
                     style="fill:#8d8c8c" /><rect
                     id="rect15584"
                     y="23.426001"
                     x="1.311"
                     width="1.182"
                     height="1.182"
                     style="fill:#8c8663" /><polygon
                     id="polygon15586"
                     points="3.049,22.867 0.752,22.867 1.311,23.426 2.491,23.426 "
                     style="fill:#b8af82" /><polygon
                     id="polygon15588"
                     points="3.049,25.166 2.491,24.607 2.491,23.426 3.049,22.867 "
                     style="fill:#80795b" /><polygon
                     id="polygon15590"
                     points="0.752,25.166 1.311,24.607 2.491,24.607 3.049,25.166 "
                     style="fill:#5e5b43" /><polygon
                     id="polygon15592"
                     points="0.752,25.166 0.752,22.867 1.311,23.426 1.311,24.607 "
                     style="fill:#9a916c" /><rect
                     id="rect15594"
                     y="30.068001"
                     x="0.75199997"
                     width="2.2969999"
                     height="2.299"
                     style="fill:#8d8c8c" /><rect
                     id="rect15596"
                     y="30.625"
                     x="1.311"
                     width="1.182"
                     height="1.184"
                     style="fill:#8c8663" /><polygon
                     id="polygon15598"
                     points="3.049,30.068 0.752,30.068 1.311,30.625 2.491,30.625 "
                     style="fill:#b8af82" /><polygon
                     id="polygon15600"
                     points="3.049,32.367 2.491,31.809 2.491,30.625 3.049,30.068 "
                     style="fill:#80795b" /><polygon
                     id="polygon15602"
                     points="0.752,32.367 1.311,31.809 2.491,31.809 3.049,32.367 "
                     style="fill:#5e5b43" /><polygon
                     id="polygon15604"
                     points="0.752,32.367 0.752,30.068 1.311,30.625 1.311,31.809 "
                     style="fill:#9a916c" /><rect
                     id="rect15606"
                     y="37.268002"
                     x="0.75199997"
                     width="2.2969999"
                     height="2.299"
                     style="fill:#8d8c8c" /><rect
                     id="rect15608"
                     y="37.826"
                     x="1.311"
                     width="1.182"
                     height="1.182"
                     style="fill:#8c8663" /><polygon
                     id="polygon15610"
                     points="3.049,37.268 0.752,37.268 1.311,37.826 2.491,37.826 "
                     style="fill:#b8af82" /><polygon
                     id="polygon15612"
                     points="3.049,39.566 2.491,39.008 2.491,37.826 3.049,37.268 "
                     style="fill:#80795b" /><polygon
                     id="polygon15614"
                     points="0.752,39.566 1.311,39.008 2.491,39.008 3.049,39.566 "
                     style="fill:#5e5b43" /><polygon
                     id="polygon15616"
                     points="0.752,39.566 0.752,37.268 1.311,37.826 1.311,39.008 "
                     style="fill:#9a916c" /><rect
                     id="rect15618"
                     y="44.467999"
                     x="0.75199997"
                     width="2.2969999"
                     height="2.299"
                     style="fill:#8d8c8c" /><rect
                     id="rect15620"
                     y="45.025002"
                     x="1.311"
                     width="1.182"
                     height="1.184"
                     style="fill:#8c8663" /><polygon
                     id="polygon15622"
                     points="3.049,44.468 0.752,44.468 1.311,45.025 2.491,45.025 "
                     style="fill:#b8af82" /><polygon
                     id="polygon15624"
                     points="3.049,46.768 2.491,46.208 2.491,45.025 3.049,44.468 "
                     style="fill:#80795b" /><polygon
                     id="polygon15626"
                     points="0.752,46.768 1.311,46.208 2.491,46.208 3.049,46.768 "
                     style="fill:#5e5b43" /><polygon
                     id="polygon15628"
                     points="0.752,46.768 0.752,44.468 1.311,45.025 1.311,46.208 "
                     style="fill:#9a916c" /><rect
                     id="rect15630"
                     y="51.667999"
                     x="0.75199997"
                     width="2.2969999"
                     height="2.299"
                     style="fill:#8d8c8c" /><rect
                     id="rect15632"
                     y="52.227001"
                     x="1.311"
                     width="1.182"
                     height="1.183"
                     style="fill:#8c8663" /><polygon
                     id="polygon15634"
                     points="3.049,51.668 0.752,51.668 1.311,52.227 2.491,52.227 "
                     style="fill:#b8af82" /><polygon
                     id="polygon15636"
                     points="3.049,53.967 2.491,53.408 2.491,52.227 3.049,51.668 "
                     style="fill:#80795b" /><polygon
                     id="polygon15638"
                     points="0.752,53.967 1.311,53.408 2.491,53.408 3.049,53.967 "
                     style="fill:#5e5b43" /><polygon
                     id="polygon15640"
                     points="0.752,53.967 0.752,51.668 1.311,52.227 1.311,53.408 "
                     style="fill:#9a916c" /><rect
                     id="rect15642"
                     y="58.868999"
                     x="0.75199997"
                     width="2.2969999"
                     height="2.299"
                     style="fill:#8d8c8c" /><rect
                     id="rect15644"
                     y="59.425999"
                     x="1.311"
                     width="1.182"
                     height="1.184"
                     style="fill:#8c8663" /><polygon
                     id="polygon15646"
                     points="3.049,58.869 0.752,58.869 1.311,59.426 2.491,59.426 "
                     style="fill:#b8af82" /><polygon
                     id="polygon15648"
                     points="3.049,61.168 2.491,60.609 2.491,59.426 3.049,58.869 "
                     style="fill:#80795b" /><polygon
                     id="polygon15650"
                     points="0.752,61.168 1.311,60.609 2.491,60.609 3.049,61.168 "
                     style="fill:#5e5b43" /><polygon
                     id="polygon15652"
                     points="0.752,61.168 0.752,58.869 1.311,59.426 1.311,60.609 "
                     style="fill:#9a916c" /><rect
                     id="rect15654"
                     y="66.068001"
                     x="0.75199997"
                     width="2.2969999"
                     height="2.299"
                     style="fill:#8d8c8c" /><rect
                     id="rect15656"
                     y="66.626999"
                     x="1.311"
                     width="1.182"
                     height="1.182"
                     style="fill:#8c8663" /><polygon
                     id="polygon15658"
                     points="3.049,66.068 0.752,66.068 1.311,66.627 2.491,66.627 "
                     style="fill:#b8af82" /><polygon
                     id="polygon15660"
                     points="3.049,68.367 2.491,67.809 2.491,66.627 3.049,66.068 "
                     style="fill:#80795b" /><polygon
                     id="polygon15662"
                     points="0.752,68.367 1.311,67.809 2.491,67.809 3.049,68.367 "
                     style="fill:#5e5b43" /><polygon
                     id="polygon15664"
                     points="0.752,68.367 0.752,66.068 1.311,66.627 1.311,67.809 "
                     style="fill:#9a916c" /><rect
                     id="rect15666"
                     y="73.269997"
                     x="0.75199997"
                     width="2.2969999"
                     height="2.299"
                     style="fill:#8d8c8c" /><rect
                     id="rect15668"
                     y="73.825996"
                     x="1.311"
                     width="1.182"
                     height="1.184"
                     style="fill:#8c8663" /><polygon
                     id="polygon15670"
                     points="3.049,73.27 0.752,73.27 1.311,73.826 2.491,73.826 "
                     style="fill:#b8af82" /><polygon
                     id="polygon15672"
                     points="3.049,75.568 2.491,75.01 2.491,73.826 3.049,73.27 "
                     style="fill:#80795b" /><polygon
                     id="polygon15674"
                     points="0.752,75.568 1.311,75.01 2.491,75.01 3.049,75.568 "
                     style="fill:#5e5b43" /><polygon
                     id="polygon15676"
                     points="0.752,75.568 0.752,73.27 1.311,73.826 1.311,75.01 "
                     style="fill:#9a916c" /><rect
                     id="rect15678"
                     y="80.469002"
                     x="0.75199997"
                     width="2.2969999"
                     height="2.299"
                     style="fill:#8d8c8c" /><rect
                     id="rect15680"
                     y="81.027"
                     x="1.311"
                     width="1.182"
                     height="1.182"
                     style="fill:#8c8663" /><polygon
                     id="polygon15682"
                     points="3.049,80.469 0.752,80.469 1.311,81.027 2.491,81.027 "
                     style="fill:#b8af82" /><polygon
                     id="polygon15684"
                     points="3.049,82.768 2.491,82.209 2.491,81.027 3.049,80.469 "
                     style="fill:#80795b" /><polygon
                     id="polygon15686"
                     points="0.752,82.768 1.311,82.209 2.491,82.209 3.049,82.768 "
                     style="fill:#5e5b43" /><polygon
                     id="polygon15688"
                     points="0.752,82.768 0.752,80.469 1.311,81.027 1.311,82.209 "
                     style="fill:#9a916c" /><rect
                     id="rect15690"
                     y="87.669998"
                     x="0.75199997"
                     width="2.2969999"
                     height="2.299"
                     style="fill:#8d8c8c" /><rect
                     id="rect15692"
                     y="88.226997"
                     x="1.311"
                     width="1.182"
                     height="1.1849999"
                     style="fill:#8c8663" /><polygon
                     id="polygon15694"
                     points="3.049,87.67 0.752,87.67 1.311,88.227 2.491,88.227 "
                     style="fill:#b8af82" /><polygon
                     id="polygon15696"
                     points="3.049,89.969 2.491,89.41 2.491,88.227 3.049,87.67 "
                     style="fill:#80795b" /><polygon
                     id="polygon15698"
                     points="0.752,89.969 1.311,89.41 2.491,89.41 3.049,89.969 "
                     style="fill:#5e5b43" /><polygon
                     id="polygon15700"
                     points="0.752,89.969 0.752,87.67 1.311,88.227 1.311,89.41 "
                     style="fill:#9a916c" /></g></g></g></g></g></g></g></g></svg>